<?xml version="1.0" standalone="no"?>
<!DOCTYPE svg PUBLIC "-//W3C//DTD SVG 1.1//EN" "http://www.w3.org/Graphics/SVG/1.1/DTD/svg11.dtd" >
<svg xmlns="http://www.w3.org/2000/svg">
<metadata>Generated by IcoMoon</metadata>
<defs>
<font id="pp-font" horiz-adv-x="1024">
<font-face units-per-em="1024" ascent="960" descent="-64" />
<missing-glyph horiz-adv-x="1024" />
<glyph unicode="&#x20;" horiz-adv-x="512" d="" />
<glyph unicode="&#xe900;" glyph-name="report" d="M498.305 946.305l-484.61-484.61c-7.221-7.221-7.563-19.826 0-27.39l484.61-484.61c7.221-7.221 19.826-7.563 27.39 0l484.61 484.61c7.221 7.221 7.563 19.826 0 27.39l-484.61 484.61c-7.221 7.221-19.826 7.563-27.39 0zM455.111 683.67c0 11.228 8.928 20.33 19.819 20.33h74.141c10.945 0 19.819-8.438 19.819-20.33v-300.674c0-11.228-8.928-20.33-19.819-20.33h-74.141c-10.945 0-19.819 8.437-19.819 20.33v300.674zM455.111 285.959c0 10.945 8.928 19.819 19.819 19.819h74.141c10.945 0 19.819-8.928 19.819-19.819v-74.141c0-10.945-8.928-19.819-19.819-19.819h-74.141c-10.945 0-19.819 8.928-19.819 19.819v74.141z" />
<glyph unicode="&#xe901;" glyph-name="download" horiz-adv-x="819" d="M35.2-64c-19.44 0-35.2 16.438-35.2 35.625v82.35c0 19.675 15.633 35.625 35.2 35.625h748.8c19.44 0 35.2-16.438 35.2-35.625v-82.35c0-19.675-15.633-35.625-35.2-35.625h-748.8zM220.341 601.6c19.653 0 35.585 15.4 35.585 35.675v287.050c0 19.703 16.516 35.675 35.24 35.675h236.721c19.462 0 35.24-15.4 35.24-35.675v-287.050c0-19.703 16.802-35.675 35.606-35.675h184.862c19.665 0 23.787-11.817 9.98-25.622l-358.407-358.355c-14.153-14.151-37.441-13.806-51.245 0l-358.304 358.355c-14.149 14.151-8.827 25.622 9.967 25.622h184.755z" />
<glyph unicode="&#xe902;" glyph-name="delete" horiz-adv-x="896" d="M65.846 681.844c-1.020 12.237 7.864 22.156 20.31 22.156h723.687c12.237 0 21.347-9.71 20.31-22.156l-60.307-723.687c-1.020-12.237-11.899-22.156-24.624-22.156h-594.444c-12.58 0-23.587 9.71-24.624 22.156l-60.307 723.687zM58.426 873.704c3.078 12.314 15.297 22.296 27.4 22.296h212.347c12.054 0 28.676 6.849 37.976 16.15l31.7 31.7c8.919 8.919 26.194 16.15 38.446 16.15h83.408c12.314 0 29.145-6.849 38.446-16.15l31.7-31.7c8.919-8.919 25.873-16.15 37.976-16.15h212.347c12.054 0 24.337-10.044 27.4-22.296l20.852-83.408c3.078-12.314-4.946-22.296-16.68-22.296h-787.492c-12.291 0-19.743 10.044-16.68 22.296l20.852 83.408z" />
<glyph unicode="&#xe903;" glyph-name="edit" d="M0 203.627c0 13.776 8.272 33.216 18.154 43.098l548.835 548.835c10.026 10.026 26.594 9.713 36.455-0.148l255.968-255.968c10.108-10.108 10.030-26.573 0.148-36.455l-548.835-548.835c-10.026-10.026-29.266-18.154-43.098-18.154h-242.682c-13.776 0-24.944 11.112-24.944 24.944v242.682zM640.016 831.984c-10.108 10.108-9.693 26.911-0.185 36.419l73.48 73.48c10.006 10.006 26.558 9.677 36.419-0.185l255.968-255.968c10.108-10.108 9.693-26.911 0.185-36.419l-73.48-73.48c-10.006-10.006-26.558-9.677-36.419 0.185l-255.968 255.968z" />
<glyph unicode="&#xe904;" glyph-name="hearth" horiz-adv-x="1152" d="M301.078 960c206.192 0 274.922-140.034 274.922-140.034s68.731 140.034 274.922 140.034c343.653 0 549.844-648.038-274.922-1024-824.766 375.962-618.575 1024-274.922 1024z" />
<glyph unicode="&#xe905;" glyph-name="infos" d="M512-64c-282.77 0-512 229.23-512 512s229.23 512 512 512c282.77 0 512-229.23 512-512s-229.23-512-512-512zM512 49.778c219.932 0 398.222 178.29 398.222 398.222s-178.29 398.222-398.222 398.222c-219.932 0-398.222-178.29-398.222-398.222s178.29-398.222 398.222-398.222zM455.111 513.452c0 10.98 8.928 19.881 19.819 19.881h74.141c10.945 0 19.819-9.141 19.819-19.881v-330.016c0-10.98-8.928-19.881-19.819-19.881h-74.141c-10.945 0-19.819 9.141-19.819 19.881v330.016zM455.111 712.626c0 10.945 8.928 19.819 19.819 19.819h74.141c10.945 0 19.819-8.928 19.819-19.819v-74.141c0-10.945-8.928-19.819-19.819-19.819h-74.141c-10.945 0-19.819 8.928-19.819 19.819v74.141z" />
<glyph unicode="&#xe906;" glyph-name="search" d="M362.471 235.058c-200.187 0-362.471 162.284-362.471 362.471s162.284 362.471 362.471 362.471c200.187 0 362.471-162.284 362.471-362.471s-162.284-362.471-362.471-362.471zM362.471 325.676c150.14 0 271.853 121.713 271.853 271.853s-121.713 271.853-271.853 271.853c-150.14 0-271.853-121.713-271.853-271.853s121.713-271.853 271.853-271.853zM647.436 221.946c-7.242 7.242-7.166 19.058 0.259 26.483l63.876 63.876c7.385 7.385 19.049 7.693 26.483 0.259l245.629-245.629c7.242-7.242 7.166-19.058-0.259-26.483l-63.876-63.876c-7.385-7.385-19.049-7.693-26.483-0.259l-245.629 245.629z" />
<glyph unicode="&#xe907;" glyph-name="share" d="M340.837 392.217c0.329 4.329 0.497 8.703 0.497 13.116 0 9.551-0.785 18.92-2.293 28.044v0l402.914 226.639c29.892-25.769 68.816-41.35 111.379-41.35 94.257 0 170.667 76.41 170.667 170.667s-76.41 170.667-170.667 170.667c-94.257 0-170.667-76.41-170.667-170.667 0-9.551 0.785-18.92 2.293-28.044l-402.914-226.639c-29.892 25.769-68.816 41.35-111.379 41.35-94.257 0-170.667-76.41-170.667-170.667s76.41-170.667 170.667-170.667c49.429 0 93.951 21.013 125.118 54.594l387.378-169.478c-0.329-4.329-0.497-8.703-0.497-13.116 0-94.257 76.41-170.667 170.667-170.667s170.667 76.41 170.667 170.667c0 94.257-76.41 170.667-170.667 170.667-49.429 0-93.951-21.013-125.118-54.594l-387.378 169.478z" />
<glyph unicode="&#xe908;" glyph-name="checked" horiz-adv-x="1317" d="M146.959 594.959c9.727 9.727 25.748 9.476 35.308-0.084l293.751-293.751c9.773-9.773 26.019-9.373 35.304-0.089l623.071 623.071c9.724 9.724 25.545 9.67 35.22-0.004l129.347-129.347c9.727-9.727 9.289-25.935 0.004-35.22l-623.071-623.071c-9.724-9.724-25.545-25.545-35.22-35.22l-129.347-129.347c-9.727-9.727-26.181-9.043-35.769 0.545l-457.4 457.4c-10.028 10.028-10.219 26.095-0.545 35.769l129.347 129.347z" />
<glyph unicode="&#xe909;" glyph-name="dropdown" d="M512-64c-282.77 0-512 229.23-512 512s229.23 512 512 512c282.77 0 512-229.23 512-512s-229.23-512-512-512zM512 49.778c219.932 0 398.222 178.29 398.222 398.222s-178.29 398.222-398.222 398.222c-219.932 0-398.222-178.29-398.222-398.222s178.29-398.222 398.222-398.222zM297.998 518.086c-7.485 8.421-4.868 15.247 6.002 15.247h416c10.8 0 13.931-6.328 6.002-15.247l-200.449-225.505c-7.485-8.421-19.178-8.919-27.106 0l-200.449 225.505z" />
<glyph unicode="&#xe90a;" glyph-name="filters" horiz-adv-x="1152" d="M640 814.876v122.784c0 12.205-9.982 22.34-22.296 22.34h-83.408c-12.252 0-22.296-10.002-22.296-22.34v-122.784c-38.259-22.132-64-63.498-64-110.876s25.741-88.744 64-110.876v-634.784c0-12.205 9.982-22.34 22.296-22.34h83.408c12.252 0 22.296 10.002 22.296 22.34v634.784c38.259 22.132 64 63.498 64 110.876s-25.741 88.744-64 110.876zM192 302.876v634.784c0 12.205-9.982 22.34-22.296 22.34h-83.408c-12.252 0-22.296-10.002-22.296-22.34v-634.784c-38.259-22.132-64-63.498-64-110.876s25.741-88.744 64-110.876v-122.784c0-12.205 9.982-22.34 22.296-22.34h83.408c12.252 0 22.296 10.002 22.296 22.34v122.784c38.259 22.132 64 63.498 64 110.876s-25.741 88.744-64 110.876v0zM1088 558.876v378.784c0 12.205-9.982 22.34-22.296 22.34h-83.408c-12.252 0-22.296-10.002-22.296-22.34v-378.784c-38.259-22.132-64-63.498-64-110.876s25.741-88.744 64-110.876v-378.784c0-12.205 9.982-22.34 22.296-22.34h83.408c12.252 0 22.296 10.002 22.296 22.34v378.784c38.259 22.132 64 63.498 64 110.876s-25.741 88.744-64 110.876v0z" />
<glyph unicode="&#xe90b;" glyph-name="warning" horiz-adv-x="1260" d="M615.808 936.688l-601.463-977.377c-8.109-13.177-2.036-23.312 13.15-23.312h1205.317c15.022 0 21.073 10.437 13.15 23.312l-601.463 977.377c-8.109 13.177-20.768 12.875-28.691 0zM615.82 637.742c7.917 12.667 20.487 13.091 28.669 0l325.793-521.269c7.917-12.667 2.030-22.935-12.591-22.935h-655.073c-14.87 0-20.773 9.844-12.591 22.935l325.793 521.269z" />
<glyph unicode="&#xe90c;" glyph-name="cross" d="M334.389 417.427c11.086 10.738 11.311 28.48 1.016 39.098l-316.347 326.28c-10.525 10.856-10.587 28.126 0.26 38.973l118.904 118.904c10.669 10.669 28.079 10.555 38.375 0.26l316.347-316.347c10.525-10.525 27.819-10.295 38.115 0l316.347 316.347c10.525 10.525 27.527 10.587 38.375-0.26l118.904-118.904c10.669-10.669 10.555-28.079 0.26-38.375l-316.347-316.347c-10.525-10.525-10.295-27.819 0-38.115l316.347-316.347c10.525-10.525 10.587-27.527-0.26-38.375l-118.904-118.904c-10.669-10.669-28.079-10.555-38.375-0.26l-316.347 316.347c-10.525 10.525-27.819 10.295-38.115 0l-316.347-316.347c-10.525-10.525-27.527-10.587-38.375 0.26l-118.904 118.904c-10.669 10.669-10.555 27.804 0.756 38.76l314.316 304.446z" />
<glyph unicode="&#xe90d;" glyph-name="upload" horiz-adv-x="1418" d="M827.045-64h169.879c1.957 0 3.852 0.197 5.67 0.572 7.087-0.38 14.224-0.572 21.405-0.572 217.515 0 393.846 176.331 393.846 393.846 0 189.231-133.455 347.292-311.38 385.199v0c-89.991 146.926-252.011 244.955-436.928 244.955-230.129 0-424.797-151.827-489.301-360.778v0c-107.605-60.849-180.238-176.322-180.238-308.761 0-195.764 158.698-354.462 354.462-354.462 7.151 0 14.253 0.212 21.299 0.629v0c1.861-0.412 3.794-0.629 5.777-0.629h209.2v253.841c0 15.549-12.259 28.101-27.381 28.101h-142.16c-14.461 0-19.797 9.48-10.441 21.175l281.197 351.496c9.151 11.439 24.524 11.695 33.88 0l281.197-351.496c9.151-11.439 4.681-21.175-10.441-21.175h-142.16c-14.461 0-27.381-12.581-27.381-28.101v-253.841z" />
<glyph unicode="&#xe90e;" glyph-name="upvote" d="M14.228 456.768c-7.858-7.795-14.228-23.072-14.228-33.716v-476.929c0-10.826 6.474-13.077 13.695-5.797l484.61 488.524c7.563 7.624 20.168 7.28 27.39 0l484.61-488.524c7.563-7.624 13.695-4.847 13.695 5.797v476.929c0 10.826-6.474 26.024-14.228 33.716l-483.544 479.639c-7.858 7.795-20.702 7.692-28.456 0l-483.544-479.639z" />
<glyph unicode="&#xe90f;" glyph-name="notification" d="M120.471 598.588c0 166.249 120.471 361.412 391.529 361.412s391.529-195.162 391.529-361.412v-361.412c0-60.235 120.471-60.235 120.471-60.235v-60.235h-1024v60.235c0 0 120.471 0 120.471 60.235v361.412zM361.412 56.471h301.176c0 0 0-120.471-150.588-120.471s-150.588 120.471-150.588 120.471v0z" />
<glyph unicode="&#xe910;" glyph-name="tags" d="M0 331.982c0 16.947 9.383 40.067 21.259 51.944l554.815 554.815c11.741 11.741 30.171 12.348 41.838 0.68l385.509-385.509c11.365-11.365 11.196-29.962-0.68-41.838l-554.815-554.815c-11.741-11.741-35.455-21.259-51.944-21.259h-365.297c-16.947 0-30.685 14.196-30.685 30.685v365.297zM256 106.667c47.128 0 85.333 38.205 85.333 85.333s-38.205 85.333-85.333 85.333c-47.128 0-85.333-38.205-85.333-85.333s38.205-85.333 85.333-85.333z" />
<glyph unicode="&#xe911;" glyph-name="logo" horiz-adv-x="1365" d="M298.667-64c-140.8 0-256 115.2-256 256 0 0 0 256 0 256 0 281.6 230.4 512 512 512 0 0-26.77 0 256 0s512-229.23 512-512c0-282.77-229.23-512-512-512 0 0-124.913 0-256 0v256h256c141.385 0 256 114.615 256 256s-114.615 256-256 256c0 0-256 0-256 0-140.8 0-256-115.2-256-256 0 0 0-346.932 0-512z" />
<glyph unicode="&#xe912;" glyph-name="explore" d="M512-64c-282.77 0-512 229.23-512 512s229.23 512 512 512c282.77 0 512-229.23 512-512s-229.23-512-512-512zM512 49.778c219.932 0 398.222 178.29 398.222 398.222s-178.29 398.222-398.222 398.222c-219.932 0-398.222-178.29-398.222-398.222s178.29-398.222 398.222-398.222zM392.105 543.426c3.378 10.135 14.555 21.164 24.469 24.469l304.63 101.543c10.135 3.378 15.539-2.32 12.234-12.234l-101.543-304.63c-3.378-10.135-14.555-21.164-24.469-24.469l-304.63-101.543c-10.135-3.378-15.539 2.32-12.234 12.234l101.543 304.63zM512 391.111c31.419 0 56.889 25.47 56.889 56.889s-25.47 56.889-56.889 56.889c-31.419 0-56.889-25.47-56.889-56.889s25.47-56.889 56.889-56.889z" />
<glyph unicode="&#xe913;" glyph-name="path" horiz-adv-x="768" d="M647.53 417.702c18.947 16.842 20.068 43.151 0 60.989l-507.387 451.011c-18.947 16.842-34.306 10.953-34.306-13.505v-936c0-24.301 14.238-31.344 34.306-13.505l507.387 451.011z" />
</font>
</defs>
</svg>
